<svg width="29" height="19" viewBox="0 0 29 19" fill="none" xmlns="http://www.w3.org/2000/svg">
<path d="M29 9.5C29 8.62555 28.2911 7.91667 27.4167 7.91667H11.8872C9.79111 7.91667 8.7493 5.3753 10.2423 3.90399L10.7851 3.36899C11.419 2.74429 11.4183 1.72144 10.7835 1.09762C10.1636 0.488357 9.16974 0.488356 8.54979 1.09762L2.17722 7.36032C0.980949 8.53596 0.98095 10.464 2.17722 11.6397L8.5498 17.9024C9.16974 18.5116 10.1636 18.5116 10.7835 17.9024C11.4183 17.2786 11.419 16.2557 10.7851 15.631L10.2423 15.096C8.7493 13.6247 9.79112 11.0833 11.8872 11.0833H27.4167C28.2911 11.0833 29 10.3745 29 9.5Z" fill="#232A40"/>
</svg>
