<svg width="31" height="17" viewBox="0 0 31 17" fill="none" xmlns="http://www.w3.org/2000/svg">
<path d="M1.40909 14.1667H29.5909V17H1.40909V14.1667ZM3.02955 8.42917L4.22727 6.3325L5.425 8.42917L7.25682 7.36667L6.05909 5.27H8.45455V3.145H6.05909L7.25682 1.0625L5.425 0L4.22727 2.0825L3.02955 0L1.19773 1.0625L2.39545 3.145H0V5.27H2.39545L1.19773 7.36667L3.02955 8.42917ZM12.4705 7.36667L14.3023 8.42917L15.5 6.3325L16.6977 8.42917L18.5295 7.36667L17.3318 5.27H19.7273V3.145H17.3318L18.5295 1.0625L16.6977 0L15.5 2.0825L14.3023 0L12.4705 1.0625L13.6682 3.145H11.2727V5.27H13.6682L12.4705 7.36667ZM31 3.145H28.6045L29.8023 1.0625L27.9705 0L26.7727 2.0825L25.575 0L23.7432 1.0625L24.9409 3.145H22.5455V5.27H24.9409L23.7432 7.36667L25.575 8.42917L26.7727 6.3325L27.9705 8.42917L29.8023 7.36667L28.6045 5.27H31V3.145Z" fill="#0E58FF" fill-opacity="0.7"/>
</svg>
