<svg width="77" height="77" viewBox="0 0 77 77" fill="none" xmlns="http://www.w3.org/2000/svg">
<g clip-path="url(#clip0_129_1038)">
<path d="M38.5 55.25C39.2817 55.25 39.9377 54.9848 40.4681 54.4544C40.9985 53.924 41.2637 53.2679 41.2637 52.4862C41.2637 51.7046 40.9985 51.0485 40.4681 50.5181C39.9377 49.9877 39.2817 49.7225 38.5 49.7225C37.7183 49.7225 37.0623 49.9877 36.5319 50.5181C36.0015 51.0485 35.7362 51.7046 35.7362 52.4862C35.7362 53.2679 36.0015 53.924 36.5319 54.4544C37.0623 54.9848 37.7183 55.25 38.5 55.25ZM36.2387 42.4362H41.2637V21.2475H36.2387V42.4362ZM38.5 72C33.9217 72 29.5946 71.1206 25.5187 69.3619C21.4429 67.6031 17.8835 65.2023 14.8406 62.1594C11.7977 59.1165 9.39687 55.5571 7.63812 51.4812C5.87937 47.4054 5 43.0504 5 38.4163C5 33.8379 5.87937 29.5108 7.63812 25.435C9.39687 21.3592 11.7977 17.8138 14.8406 14.7987C17.8835 11.7838 21.4429 9.39687 25.5187 7.63812C29.5946 5.87937 33.9496 5 38.5837 5C43.1621 5 47.4892 5.87937 51.565 7.63812C55.6408 9.39687 59.1863 11.7838 62.2013 14.7987C65.2163 17.8138 67.6031 21.3592 69.3619 25.435C71.1206 29.5108 72 33.8658 72 38.5C72 43.0783 71.1206 47.4054 69.3619 51.4812C67.6031 55.5571 65.2163 59.1165 62.2013 62.1594C59.1863 65.2023 55.6408 67.6031 51.565 69.3619C47.4892 71.1206 43.1342 72 38.5 72ZM38.5837 66.975C46.4562 66.975 53.1562 64.1973 58.6837 58.6419C64.2112 53.0865 66.975 46.3446 66.975 38.4163C66.975 30.5438 64.2112 23.8438 58.6837 18.3162C53.1562 12.7887 46.4283 10.025 38.5 10.025C30.6275 10.025 23.9135 12.7887 18.3581 18.3162C12.8027 23.8438 10.025 30.5717 10.025 38.5C10.025 46.3725 12.8027 53.0865 18.3581 58.6419C23.9135 64.1973 30.6554 66.975 38.5837 66.975Z" fill="white"/>
</g>
<defs>
<clipPath id="clip0_129_1038">
<rect width="77" height="77" fill="white"/>
</clipPath>
</defs>
</svg>
