<svg width="77" height="77" viewBox="0 0 77 77" fill="none" xmlns="http://www.w3.org/2000/svg">
<g clip-path="url(#clip0_78_692)">
<path d="M9.29148 56.8678C6.58973 61.5345 9.95714 67.3751 15.3495 67.3751H61.6505C67.0429 67.3751 70.4103 61.5345 67.7085 56.8678L44.558 16.8805C41.8618 12.2235 35.1382 12.2235 32.442 16.8805L9.29148 56.8678ZM41.7083 54.5418C41.7083 56.3137 40.2719 57.7501 38.5 57.7501C36.7281 57.7501 35.2917 56.3137 35.2917 54.5418C35.2917 52.7698 36.7281 51.3334 38.5 51.3334C40.2719 51.3334 41.7083 52.7698 41.7083 54.5418ZM41.7083 41.7084C41.7083 43.4803 40.2719 44.9167 38.5 44.9167C36.7281 44.9167 35.2917 43.4803 35.2917 41.7084V35.2917C35.2917 33.5198 36.7281 32.0834 38.5 32.0834C40.2719 32.0834 41.7083 33.5198 41.7083 35.2917V41.7084Z" fill="white"/>
</g>
<defs>
<clipPath id="clip0_78_692">
<rect width="77" height="77" fill="white"/>
</clipPath>
</defs>
</svg>
